PathFileType	4	(X/Y/Z)	C:/Users/beibeiliu/ov580/test_trc\sequence.38_training_dense_left.trc
DataRate	CameraRate	NumFrames	NumMarkers	Units	OrigDataRate	OrigDataStartFrame	OrigNumFrames
120	120	9	19	mm	120	1	75
Frame#	Time	ThumbCMC			ThumbMCP			ThumbIP			ThumbTip			IndexMCP			IndexPIP			IndexTip			MiddleMCP			MiddlePIP			MiddleTip			RingMCP			RingPIP			RingTip			PinkyMCP			PinkyPIP			PinkyTip			BackHand1			BackHand2			BackHand3	
		X0	Y0	Z0	X1	Y1	Z1	X2	Y2	Z2	X3	Y3	Z3	X4	Y4	Z4	X5	Y5	Z5	X6	Y6	Z6	X7	Y7	Z7	X8	Y8	Z8	X9	Y9	Z9	X10	Y10	Z10	X11	Y11	Z11	X12	Y12	Z12	X13	Y13	Z13	X14	Y14	Z14	X15	Y15	Z15	X16	Y16	Z16	X17	Y17	Z17	X18	Y18	Z18	
0	0	-181.474	22.8613	-20.9926	-167.726	10.9224	-44.4532	-158.251	7.46203	-66.6457	-154.79	-1.7021	-89.8841	-215.208	26.8785	-79.7106	-210.556	21.0543	-104.512	-198.301	3.19925	-126.062	-233.622	15.1533	-81.0988	-231.346	1.93035	-108.198	-210.504	-21.6404	-111.666	-242.968	1.8992	-73.7417	-239.861	-8.46437	-95.6426	-219.83	-26.1262	-101.88	-250.19	-18.2773	-58.4039	-247.299	-26.7413	-77.1926	-225.427	-34.3791	-89.2314	-237.888	9.11072	-29.09	-230.835	9.86745	1.07852	-217.879	28.0689	-20.394	
1	0.00833333	-181.469	11.0122	-33.0747	-166.522	-0.50465	-55.7424	-162.116	-7.78841	-75.5987	-154.467	-16.7175	-98.0545	-214.792	13.1971	-90.7502	-210.511	4.01742	-117.69	-197.159	-14.7026	-133.648	-232.129	1.84194	-92.7827	-229.8	-10.6273	-115.817	-206.866	-36.2156	-115.959	-244.046	-13.729	-78.6878	-236.53	-22.1201	-103.196	-211.82	-42.1017	-105.435	-244.759	-28.1543	-62.3433	-241.866	-41.2111	-87.7109	-223.269	-49.4816	-95.2276	-235.504	-4.99461	-34.2309	-229.451	1.58696	-10.835	-215.56	17.242	-32.6945	
2	0.0166667	-179.386	7.67586	-32.2359	-165.668	-4.54607	-53.4231	-157.166	-12.2472	-79.5969	-153.835	-21.5499	-93.9597	-208.133	11.1729	-96.8392	-206.617	-0.63133	-116.863	-190.145	-16.2317	-131.33	-230.982	-2.75542	-90.4478	-225.805	-16.1446	-116.833	-202.116	-36.9333	-114.549	-237.804	-13.8636	-79.2627	-230.863	-29.173	-105.464	-209.76	-45.7395	-102.251	-245.172	-31.7994	-64.1684	-240.894	-44.4293	-86.8316	-219.356	-51.2741	-92.1172	-234.981	-7.92603	-35.9802	-226.718	-1.94842	-12.9676	-214.255	13.0644	-31.2142	
3	0.025	-179.194	10.4212	-30.4949	-167.831	-4.12317	-49.4728	-159.727	-11.2498	-70.6457	-153.781	-20.1079	-86.4802	-208.869	10.6608	-89.5033	-198.995	-0.650858	-112.7	-189.958	-20.446	-118.839	-228.709	1.17631	-83.8056	-222.657	-16.0567	-110.676	-200.829	-36.0408	-101.759	-238.785	-11.1985	-76.2689	-231.321	-26.8533	-98.8021	-210.935	-39.2864	-96.7482	-242.05	-26.6934	-58.537	-240.249	-37.268	-82.838	-218.627	-48.6581	-87.6743	-234.931	-5.64414	-33.2844	-231.459	-2.81762	-6.97048	-215.368	16.0845	-27.5735	
4	0.0333333	-183.577	13.0466	-13.4637	-168.881	1.38017	-39.8144	-159.172	-4.37595	-58.5497	-154.53	-13.8917	-78.1854	-207.297	19.419	-74.6983	-200.248	6.37858	-96.6402	-182.809	-13.8731	-103.649	-229.68	9.04867	-78.1083	-217.962	-9.50017	-98.6539	-198.689	-26.5236	-88.4407	-242.25	-9.06678	-63.6018	-229.483	-19.7551	-88.4911	-208.337	-34.6683	-80.1978	-247.482	-25.1279	-49.161	-241.143	-29.3508	-71.2878	-218.274	-41.3284	-76.247	-237.98	-0.331065	-20.5519	-229.941	5.14644	2.67787	-217.187	19.4663	-14.9287	
5	0.0416667	-184.878	21.5975	-2.00027	-170.525	11.1866	-24.0856	-163.541	5.47808	-47.4469	-156.444	-3.02492	-65.8417	-206.366	29.741	-57.8711	-198.133	10.484	-80.7683	-180.124	-5.32541	-83.6398	-231.535	15.5353	-61.3727	-219.278	2.60426	-83.5109	-198.743	-16.6522	-69.2928	-242.896	0.320458	-49.1818	-230.62	-11.2874	-73.3835	-210.173	-23.5057	-66.7942	-246.666	-13.7758	-35.2152	-242.613	-19.1547	-56.8659	-218.799	-30.1204	-60.3116	-234.92	9.08522	-2.76156	-230.947	9.0197	19.9564	-215.346	29.3037	2.0452	
6	0.05	-183.736	33.8816	15.1132	-169.03	24.1901	-9.13284	-164.185	17.4957	-27.0834	-159.621	11.7399	-48.3137	-209.284	37.7102	-44.6095	-196.526	28.0654	-61.1595	-179.72	6.36919	-63.5845	-232.447	26.9864	-44.9684	-220.028	17.7812	-66.5565	-194.662	-1.27347	-51.6638	-239.289	15.0572	-31.6305	-231.207	4.09032	-56.5669	-204.004	-7.32806	-48.6802	-247.123	-5.20859	-20.0635	-238.052	-10.4256	-44.4639	-215.329	-16.2868	-45.0129	-232.878	17.1989	13.4039	-231.66	15.2271	38.1949	-219.425	37.0793	21.8577	
7	0.0583333	-182.914	46.4215	39.1436	-168.439	38.4669	12.6799	-161.458	36.6833	-13.0741	-155.412	31.3386	-31.3149	-209.215	54.4777	-23.8393	-192.067	41.6304	-42.9094	-177.472	23.1379	-43.6739	-230.676	42.5343	-25.9871	-218.212	32.3464	-47.3995	-189.858	19.4114	-30.5571	-238.623	29.0695	-14.965	-229.194	17.2254	-38.9996	-205.061	8.13165	-31.7024	-246.123	8.80145	-5.69087	-237.499	6.41014	-26.549	-209.38	0.824703	-25.4795	-235.753	23.7552	31.7739	-231.041	24.326	54.2311	-218.671	50.5762	40.7962	
8	0.0666667	-183.143	63.046	58.1519	-169.005	57.773	31.4839	-163.292	56.6818	10.7309	-156.734	54.719	-12.6858	-209.381	75.7206	1.44036	-190.999	63.9305	-21.0519	-167.602	48.6986	-19.7651	-228.995	62.7129	-1.07054	-213.559	50.7594	-26.5245	-188.934	40.7169	-10.9305	-237.909	46.169	3.48709	-225.09	39.1698	-19.3915	-198.257	33.1432	-8.13048	-240.69	24.8247	16.5681	-233.498	26.6923	-7.78203	-205.665	22.2776	-6.71706	-232.193	40.5894	49.8486	-227.923	35.3826	76.3919	-217.602	62.217	63.0091	
